<?xml version="1.0" encoding="UTF-8"?>
<svg width="142px" height="142px" viewBox="0 0 142 142" version="1.1" xmlns="http://www.w3.org/2000/svg" xmlns:xlink="http://www.w3.org/1999/xlink">
    <!-- Generator: Sketch 63.1 (92452) - https://sketch.com -->
    <title></title>
    <desc>Created with Sketch.</desc>
    <g id="画板" stroke="none" stroke-width="1" fill="none" fill-rule="evenodd">
        <g id="默认头像备份">
            <circle id="椭圆形" fill="#0C0B22" cx="71" cy="71" r="71"></circle>
            <rect id="矩形" fill="#0C0B22" x="0" y="0" width="142" height="142"></rect>
            <path d="M71.5,36 C60.9633602,36 52.5585104,45.6014065 52.5585104,57.3 L52.5902123,58.5392677 C52.8429587,63.4699632 54.5965429,68.0647323 57.4755919,71.6243282 L57.9142165,72.1342667 L56.9260528,72.6447479 C46.9494651,78.0344216 40.564081,89.2925139 38.0337918,104.238453 C37.7892764,105.682759 38.9028169,107 40.3682881,107 L102.631712,107 C104.097183,107 105.210724,105.682759 104.966208,104.238453 L104.680347,102.65121 C101.97504,88.4948793 95.6936441,77.8415985 86.0729854,72.6481461 L85.0810481,72.139 L85.5253616,71.625499 C88.6439518,67.7667352 90.4414896,62.6961204 90.4414896,57.3 C90.4414896,45.6014065 82.0366398,36 71.5,36 Z M71.5,40.7333333 C79.270278,40.7333333 85.7061172,48.085411 85.7061172,57.3 C85.7061172,62.9193857 83.2870971,68.0344653 79.3735372,71.084702 C77.8832269,72.2462529 78.2879662,74.5990666 80.0808323,75.1963203 L81.1316425,75.5744384 C90.1320996,79.0584672 96.3564262,87.9041486 99.379342,100.514991 L99.7701733,102.266667 L43.2250913,102.266667 L43.286072,101.986803 C46.2755523,88.0968519 52.9969976,78.5005289 62.9198733,75.1904425 C64.7128628,74.5923346 65.1163237,72.2386521 63.6248136,71.0780103 C59.7131464,68.0340854 57.2938828,62.9197166 57.2938828,57.3 C57.2938828,48.085411 63.729722,40.7333333 71.5,40.7333333 Z" id="形状结合" fill="#FFFFFF" fill-rule="nonzero"></path>
        </g>
    </g>
</svg>